<?xml version="1.0" encoding="UTF-8"?>
<svg width="1440px" height="1024px" viewBox="0 0 1440 1024" version="1.1" xmlns="http://www.w3.org/2000/svg" xmlns:xlink="http://www.w3.org/1999/xlink">
    <!-- Generator: Sketch 43.2 (39069) - http://www.bohemiancoding.com/sketch -->
    <title>Desktop HD Copy 5</title>
    <desc>Created with Sketch.</desc>
    <defs>
        <circle id="path-1" cx="134" cy="861" r="19"></circle>
        <filter x="-5.3%" y="-5.3%" width="110.5%" height="110.5%" filterUnits="objectBoundingBox" id="filter-2">
            <feGaussianBlur stdDeviation="1.5" in="SourceAlpha" result="shadowBlurInner1"></feGaussianBlur>
            <feOffset dx="0" dy="1" in="shadowBlurInner1" result="shadowOffsetInner1"></feOffset>
            <feComposite in="shadowOffsetInner1" in2="SourceAlpha" operator="arithmetic" k2="-1" k3="1" result="shadowInnerInner1"></feComposite>
            <feColorMatrix values="0 0 0 0 0   0 0 0 0 0   0 0 0 0 0  0 0 0 0.5 0" type="matrix" in="shadowInnerInner1"></feColorMatrix>
        </filter>
        <circle id="path-3" cx="134" cy="512" r="19"></circle>
        <filter x="-5.3%" y="-5.3%" width="110.5%" height="110.5%" filterUnits="objectBoundingBox" id="filter-4">
            <feGaussianBlur stdDeviation="1.5" in="SourceAlpha" result="shadowBlurInner1"></feGaussianBlur>
            <feOffset dx="0" dy="1" in="shadowBlurInner1" result="shadowOffsetInner1"></feOffset>
            <feComposite in="shadowOffsetInner1" in2="SourceAlpha" operator="arithmetic" k2="-1" k3="1" result="shadowInnerInner1"></feComposite>
            <feColorMatrix values="0 0 0 0 0   0 0 0 0 0   0 0 0 0 0  0 0 0 0.5 0" type="matrix" in="shadowInnerInner1"></feColorMatrix>
        </filter>
        <circle id="path-5" cx="134" cy="163" r="19"></circle>
        <filter x="-5.3%" y="-5.3%" width="110.5%" height="110.5%" filterUnits="objectBoundingBox" id="filter-6">
            <feGaussianBlur stdDeviation="1.5" in="SourceAlpha" result="shadowBlurInner1"></feGaussianBlur>
            <feOffset dx="0" dy="1" in="shadowBlurInner1" result="shadowOffsetInner1"></feOffset>
            <feComposite in="shadowOffsetInner1" in2="SourceAlpha" operator="arithmetic" k2="-1" k3="1" result="shadowInnerInner1"></feComposite>
            <feColorMatrix values="0 0 0 0 0   0 0 0 0 0   0 0 0 0 0  0 0 0 0.5 0" type="matrix" in="shadowInnerInner1"></feColorMatrix>
        </filter>
    </defs>
    <g id="Page-1" stroke="none" stroke-width="1" fill="none" fill-rule="evenodd">
        <g id="Desktop-HD-Copy-5">
            <g id="Group-2" opacity="0.5" transform="translate(-30.000000, 470.000000)" stroke="#979797" stroke-linecap="square" stroke-dasharray="5,5">
                <path d="M1.29225825,37.5 L1152.47832,37.5" id="Line-Copy-4"></path>
                <path d="M1.29225825,120.5 L1152.47832,120.5" id="Line-Copy-6"></path>
                <path d="M1.29225825,204.5 L1152.47832,204.5" id="Line-Copy-8"></path>
                <path d="M1.29225825,76.5 L1152.47832,76.5" id="Line-Copy-5"></path>
                <path d="M1.29225825,159.5 L1152.47832,159.5" id="Line-Copy-7"></path>
                <path d="M1.29225825,243.5 L1152.47832,243.5" id="Line-Copy-9"></path>
                <path d="M5.73924142,0.5 L1153.0505,0.5" id="Line-Copy-3"></path>
            </g>
            <path d="M271.5,-20.5 L271.5,1027.59351" id="Line" stroke="#EA0808" stroke-linecap="square"></path>
            <g id="Page-1" transform="translate(44.000000, 438.000000)" fill="#064793">
                <path d="M103.0738,154.1815 C92.4068,155.0635 80.3668,146.4105 73.8588,138.9035 C73.4218,138.3975 72.6608,138.7235 72.4708,139.2695 C72.0058,140.6075 71.5398,141.9455 71.0738,143.2835 C68.2188,135.4105 66.0098,127.4005 64.4908,119.1435 C64.3688,118.4815 63.5328,118.4065 63.1028,118.7775 C62.5378,119.2645 61.9728,119.7505 61.4088,120.2375 C61.2468,117.7805 61.4038,115.7115 62.0088,112.9565 C62.0198,112.8995 62.0088,112.8515 62.0108,112.7975 C63.9088,112.2015 65.7608,111.0685 67.2198,110.1625 C68.6978,109.2445 70.1968,107.7415 71.1908,106.0555 C71.3208,106.2615 71.5238,106.4245 71.8198,106.4615 C77.0048,107.1085 81.8948,108.6075 86.4028,111.2905 C87.5348,111.9635 92.3698,114.9385 92.1938,115.5775 C91.7938,117.0425 89.1008,117.0855 87.8128,117.4505 C86.9528,117.6945 87.1028,118.7515 87.8128,119.0505 C91.7048,120.6935 105.5638,129.6265 93.3008,129.2725 C92.6188,129.2525 92.1558,130.2205 92.7138,130.6905 C96.7258,134.0605 100.1008,137.9465 102.5488,142.6035 C103.7648,144.9185 105.7178,148.4495 105.8248,151.2265 C105.9348,154.0995 106.4068,153.9065 103.0738,154.1815 M56.7118,108.9055 C59.3328,108.6435 62.2848,107.3395 63.8728,106.1945 C65.3958,105.0955 68.1418,102.3925 69.2968,99.8115 C72.4528,102.1675 69.6548,106.5155 67.1528,108.2355 C66.1498,108.9245 65.0568,109.5055 63.9738,110.0565 C62.9208,110.5925 61.8638,111.2125 60.6718,111.3605 C59.2108,111.5405 56.3468,111.3975 56.7118,108.9055 M55.5188,107.5705 C54.1228,107.4615 53.1098,106.6525 53.1688,104.5245 C58.5248,103.1605 63.4898,100.4525 66.6258,96.1015 C66.6818,96.1355 66.7288,96.1775 66.7998,96.2025 C71.3598,97.7355 63.5028,104.4345 62.6118,105.0515 C61.4968,105.8245 58.6828,107.3255 56.4138,107.5515 C56.1358,107.3985 55.7838,107.3905 55.5188,107.5705 M43.4688,103.9515 C43.3308,103.9485 43.2128,103.9735 43.1098,104.0195 C43.0908,104.0005 43.0858,103.9795 43.0628,103.9605 C28.2888,91.6325 17.9038,74.5815 11.3368,56.6355 C8.4308,48.6945 6.2588,40.4955 4.6958,32.1885 C10.2768,32.7075 15.6358,31.0635 20.2498,27.8035 C23.0248,25.8415 26.9648,22.1835 27.0148,18.3735 C33.2568,24.0315 38.7938,30.4635 43.5988,37.3745 C48.8958,44.9935 53.3538,53.1735 57.1778,61.6195 C59.4948,66.7365 61.5808,71.9565 63.5008,77.2335 C64.1958,79.1435 64.8658,81.0645 65.5198,82.9895 C65.7078,83.5405 67.3608,87.7585 68.4448,90.1635 C68.0778,90.1185 67.6838,90.2705 67.5418,90.7225 C64.4178,100.6165 52.8778,104.1915 43.4688,103.9515 M47.1788,124.7635 C41.5808,119.8695 36.1338,114.8125 30.9108,109.5175 C27.9648,106.5295 24.4788,103.8915 23.5278,99.7545 C22.6408,95.8965 24.3148,91.4645 25.5308,87.5175 C30.2228,93.9695 35.6328,99.9135 41.8888,105.1345 C42.1888,105.3845 42.5368,105.3825 42.8178,105.2485 C42.9098,105.3925 43.0588,105.4895 43.2388,105.5485 C43.2438,105.5985 43.2338,105.6435 43.2488,105.6975 C44.9568,111.9875 46.2538,118.3235 47.1788,124.7635 M4.3268,30.2105 C3.4788,25.3965 2.8528,20.5445 2.4148,15.6765 C2.2098,13.3975 2.0478,11.1165 1.9258,8.8305 C1.8598,7.6905 1.8078,6.5485 1.7698,5.4075 C0.9518,3.4035 1.3768,2.6625 3.0468,3.1885 C5.9008,2.5055 11.6078,6.9445 13.8698,8.3605 C17.8428,10.8475 21.5988,13.6625 25.1488,16.7215 C25.0708,16.8105 25.0048,16.9105 24.9708,17.0315 L24.9058,17.2715 C24.7318,17.9005 25.2598,18.3045 25.7618,18.2935 C25.0068,19.0045 24.5508,19.9185 24.4118,21.0455 C23.8328,22.1245 23.1078,23.1005 22.2368,23.9735 C20.8898,25.3895 19.2788,26.5355 17.6038,27.5285 C13.5388,29.9375 9.0768,31.1045 4.3848,30.5165 C4.3658,30.4135 4.3448,30.3125 4.3268,30.2105 M69.4048,67.4705 C73.0378,69.3405 73.9538,71.9405 75.6688,75.5665 C78.9368,82.4795 81.7778,89.5715 84.3258,96.7775 C79.5298,94.2605 74.8478,91.5835 70.2538,88.7015 C69.9388,88.5045 69.6388,88.5565 69.4118,88.7195 C68.7768,85.8075 67.1968,82.7335 66.3278,80.2415 C64.5628,75.1835 62.6638,70.1725 60.5678,65.2435 C60.3618,64.7605 60.1448,64.2825 59.9358,63.8005 C63.1198,64.8905 66.4198,65.9335 69.4048,67.4705 M95.4048,130.9055 C97.2198,130.8035 98.8378,130.4685 100.8018,129.7905 C101.2918,129.6205 101.5948,129.0525 101.2978,128.5715 C98.4978,124.0465 94.9598,120.7835 90.3888,118.4475 C91.7648,118.0565 93.1428,117.6665 94.5188,117.2775 C95.1148,117.1085 95.3358,116.7785 94.8858,116.3365 C88.4248,110.0095 80.7778,105.6975 71.8198,105.6975 L71.8098,105.6975 C72.7948,102.6975 72.5898,100.2805 69.7908,98.5955 C69.9748,97.1675 69.4138,95.6865 67.5188,94.9475 C67.9158,94.2705 68.2868,93.4595 68.5958,92.7115 C69.0108,92.8275 69.5608,92.5605 69.6278,92.1025 C69.7098,91.5335 69.6988,90.9105 69.6488,90.3065 C74.7818,93.5165 80.0128,96.4735 85.4038,99.2325 C86.0018,99.5375 86.8748,99.0165 86.6238,98.2875 C83.4788,89.1705 80.0188,79.8485 75.4528,71.3295 C72.2398,65.3345 65.9378,64.1345 59.7318,61.9815 C59.5058,61.9025 59.3128,61.9305 59.1538,62.0125 C55.0498,52.8015 50.2508,43.8835 44.4148,35.6485 C33.3728,20.0655 18.8308,7.2915 1.0518,0.0465 C0.5468,-0.1595 -0.0092,0.3575 0.0008,0.8465 C0.1798,10.8625 1.1048,21.1345 2.9128,31.2915 C2.8918,31.4605 2.9138,31.6245 2.9968,31.7615 C6.4888,51.0775 13.2238,69.9535 24.2978,85.8305 C22.4008,92.5285 18.6588,98.8095 23.7838,104.4705 C31.2058,112.6665 39.3668,120.2375 47.7318,127.4535 C48.2058,127.8635 49.2508,127.6485 49.1488,126.8675 C48.2168,119.6755 46.8228,112.6135 44.9398,105.6115 C47.1098,105.5785 49.3358,105.3405 51.5238,104.9005 C51.5788,107.5995 53.0878,108.6945 55.0688,108.9055 C54.9868,110.7085 56.1368,112.3215 57.9638,112.9465 C58.7118,113.2025 59.4948,113.2555 60.2868,113.1755 C59.7018,116.1235 59.5538,118.8645 59.8938,121.9195 C59.9748,122.6455 60.7378,123.0015 61.3118,122.5075 C63.6648,120.4795 63.1638,121.8165 63.8388,124.4905 C64.4498,126.9135 64.9428,129.3565 65.5938,131.7735 C66.8938,136.6055 68.5018,141.3275 70.2808,146.0015 C70.5738,146.7695 71.6018,146.8065 71.8828,146.0015 C72.2538,144.9345 72.7188,141.7975 74.0968,141.7065 C74.3668,141.6885 78.4478,145.8275 78.8118,146.1205 C81.3878,148.1985 84.1948,149.9695 87.1668,151.4215 C93.5258,154.5295 100.3268,155.9455 107.3828,155.9715 C107.9718,155.9745 108.2628,155.4425 108.1828,154.9205 C106.7278,145.4585 102.3548,137.3175 95.4048,130.9055" id="Fill-1"></path>
                <path d="M28.318,46.9647 C24.558,48.7377 20.221,46.1997 19.278,42.2267 C18.553,39.1777 19.829,36.2967 21.816,34.0777 C22.174,34.2937 22.644,34.2657 22.859,33.7727 C25.288,28.2147 32.352,33.1667 33.219,37.1557 C34.043,40.9407 31.789,45.3267 28.318,46.9647 M32.916,32.9287 C30.561,30.1117 25.586,28.6147 22.781,31.0677 C22.649,31.0917 22.516,31.1387 22.392,31.2367 C18.231,34.5377 15.664,40.5877 18.907,45.4257 C21.86,49.8297 27.52,50.4237 31.358,46.8787 C35.21,43.3197 36.439,37.1447 32.916,32.9287" id="Fill-3"></path>
                <path d="M43.191,72.9295 C39.649,73.5335 36.478,71.0595 35.578,67.6785 C34.743,64.5405 36.028,61.5575 38.191,59.3695 C38.323,59.3435 38.455,59.2925 38.578,59.1885 C45.295,53.4665 53.99,71.0875 43.191,72.9295 M38.743,57.0975 C38.512,57.0525 38.262,57.0895 38.037,57.2715 C34.186,60.3775 32.274,65.7265 34.843,70.2805 C37.151,74.3705 42.375,76.0515 46.46,73.4655 C54.613,68.3035 46.581,52.8395 38.743,57.0975" id="Fill-5"></path>
            </g>
            <g id="Oval">
                <use fill="#D8D8D8" fill-rule="evenodd" xlink:href="#path-1"></use>
                <use fill="black" fill-opacity="1" filter="url(#filter-2)" xlink:href="#path-1"></use>
            </g>
            <g id="Oval-Copy">
                <use fill="#D8D8D8" fill-rule="evenodd" xlink:href="#path-3"></use>
                <use fill="black" fill-opacity="1" filter="url(#filter-4)" xlink:href="#path-3"></use>
            </g>
            <g id="Oval-Copy-2">
                <use fill="#D8D8D8" fill-rule="evenodd" xlink:href="#path-5"></use>
                <use fill="black" fill-opacity="1" filter="url(#filter-6)" xlink:href="#path-5"></use>
            </g>
        </g>
    </g>
</svg>